<?xml version="1.0" standalone="no"?>
<!DOCTYPE svg PUBLIC "-//W3C//DTD SVG 20010904//EN"
 "http://www.w3.org/TR/2001/REC-SVG-20010904/DTD/svg10.dtd">
<svg version="1.0" xmlns="http://www.w3.org/2000/svg"
 width="512.000000pt" height="512.000000pt" viewBox="0 0 512.000000 512.000000"
 preserveAspectRatio="xMidYMid meet">
<metadata>
Created by potrace 1.14, written by Peter Selinger 2001-2017
</metadata>
<g transform="translate(0.000000,512.000000) scale(0.100000,-0.100000)"
fill="#000000" stroke="none">
<path d="M2124 5102 c-12 -2 -30 -12 -40 -24 -18 -19 -19 -61 -21 -975 l-2
-956 -94 -141 c-52 -77 -172 -253 -265 -391 -94 -137 -254 -374 -357 -525
-102 -151 -225 -331 -272 -400 -47 -69 -140 -206 -207 -305 -66 -99 -123 -182
-126 -185 -3 -3 -28 -39 -55 -80 -28 -41 -109 -160 -180 -265 -71 -104 -164
-242 -207 -305 -43 -63 -81 -119 -86 -125 -29 -37 -201 -297 -207 -313 -9 -30
5 -71 29 -84 27 -15 4983 -21 5034 -6 35 10 52 33 52 71 0 14 -112 188 -297
460 -164 240 -505 741 -758 1112 -253 372 -467 683 -476 691 -24 22 -77 21
-99 -2 -16 -16 -148 -209 -323 -471 -23 -35 -45 -63 -48 -63 -3 0 -82 113
-175 251 -93 137 -194 286 -224 329 -30 44 -102 149 -160 235 -58 85 -160 236
-227 334 l-123 180 0 333 0 334 390 1 390 1 0 -207 0 -208 25 -23 25 -24 607
1 606 0 25 28 c42 49 48 39 -230 412 l-98 132 175 238 c100 137 175 247 175
260 0 12 -11 34 -24 49 l-23 28 -342 0 c-229 0 -341 4 -342 11 -1 5 -2 96 -3
200 -2 205 -7 227 -53 242 -16 5 -315 8 -665 8 l-638 -1 0 45 c-1 64 -36 102
-86 93z"/>
</g>
</svg>
